<svg xmlns="http://www.w3.org/2000/svg" width="320" height="320" viewBox="0 0 45 45" shape-rendering="crispEdges"><path fill="#FFFFFF" d="M0 0h45v45H0z"/><path stroke="#102A43" d="M2 2.5h7m3 0h1m1 0h5m2 0h3m1 0h1m2 0h2m2 0h2m2 0h7M2 3.5h1m5 0h1m1 0h3m4 0h3m1 0h2m1 0h8m1 0h2m1 0h1m5 0h1M2 4.5h1m1 0h3m1 0h1m2 0h3m1 0h1m2 0h1m4 0h2m1 0h1m1 0h1m4 0h2m1 0h1m1 0h3m1 0h1M2 5.5h1m1 0h3m1 0h1m2 0h1m1 0h3m2 0h2m2 0h3m3 0h1m3 0h2m2 0h1m1 0h3m1 0h1M2 6.5h1m1 0h3m1 0h1m1 0h1m1 0h2m1 0h1m1 0h1m3 0h1m2 0h2m2 0h2m1 0h1m1 0h2m1 0h1m1 0h3m1 0h1M2 7.5h1m5 0h1m2 0h3m3 0h2m2 0h2m2 0h3m1 0h5m2 0h1m5 0h1M2 8.5h7m1 0h1m1 0h1m1 0h1m1 0h1m1 0h1m1 0h1m1 0h1m1 0h1m1 0h1m1 0h1m1 0h1m1 0h1m1 0h1m1 0h7M11 9.5h1m2 0h6m1 0h1m1 0h1m1 0h4m1 0h5M2 10.5h1m1 0h1m1 0h1m1 0h1m2 0h2m3 0h2m1 0h1m1 0h3m1 0h1m1 0h1m1 0h3m1 0h2m3 0h1m2 0h1M2 11.5h3m1 0h1m2 0h2m1 0h2m1 0h1m2 0h3m1 0h3m1 0h1m3 0h1m3 0h3m2 0h4M2 12.5h1m1 0h2m2 0h1m3 0h1m3 0h1m1 0h1m4 0h2m3 0h1m2 0h1m6 0h1m1 0h3M5 13.5h2m3 0h2m4 0h1m1 0h2m1 0h4m1 0h2m3 0h1m2 0h1m6 0h1M4 14.5h1m1 0h1m1 0h1m1 0h1m1 0h2m1 0h2m1 0h2m1 0h3m1 0h1m1 0h1m3 0h1m1 0h2m1 0h2m1 0h1m1 0h2M4 15.5h2m1 0h1m2 0h1m1 0h1m1 0h2m1 0h3m1 0h3m1 0h1m2 0h1m1 0h2m2 0h3m3 0h1m1 0h1M2 16.5h3m1 0h9m2 0h1m2 0h3m4 0h1m2 0h3m3 0h3m2 0h2M3 17.5h1m1 0h1m6 0h1m2 0h1m1 0h4m1 0h2m1 0h1m1 0h1m1 0h1m1 0h4m1 0h1m2 0h1m1 0h2M2 18.5h2m2 0h1m1 0h4m1 0h1m2 0h1m1 0h6m2 0h2m1 0h3m4 0h2m3 0h1M9 19.5h1m1 0h7m2 0h1m2 0h1m2 0h1m1 0h1m2 0h1m2 0h1m1 0h1m2 0h1m1 0h2M3 20.5h3m2 0h3m1 0h2m1 0h1m1 0h1m1 0h1m2 0h1m1 0h1m1 0h1m3 0h3m3 0h1m1 0h2m1 0h2M2 21.5h3m1 0h2m2 0h1m2 0h1m1 0h3m4 0h3m2 0h5m1 0h5m1 0h1m2 0h1M4 22.5h5m1 0h1m1 0h2m1 0h1m1 0h2m2 0h2m1 0h1m1 0h2m2 0h2m2 0h4m3 0h2M3 23.5h5m2 0h1m4 0h2m1 0h2m2 0h3m6 0h2m1 0h4m2 0h3M2 24.5h2m1 0h2m1 0h1m1 0h1m1 0h1m4 0h4m1 0h1m3 0h1m3 0h1m4 0h1m1 0h3m1 0h2M5 25.5h2m6 0h1m1 0h1m1 0h1m1 0h1m1 0h3m1 0h3m1 0h1m1 0h4m1 0h2m1 0h1m1 0h1M2 26.5h1m1 0h2m1 0h5m1 0h1m1 0h1m1 0h3m2 0h2m1 0h4m1 0h2m2 0h3m5 0h1M5 27.5h3m4 0h1m5 0h1m7 0h2m2 0h2m3 0h2m5 0h1M2 28.5h1m3 0h1m1 0h1m4 0h1m2 0h2m2 0h1m1 0h2m2 0h1m5 0h1m2 0h1m1 0h2m1 0h3M4 29.5h2m3 0h1m3 0h2m2 0h1m1 0h7m1 0h1m1 0h1m1 0h2m1 0h1m2 0h1M2 30.5h1m1 0h1m2 0h2m3 0h1m1 0h1m1 0h4m1 0h1m1 0h1m2 0h2m1 0h3m1 0h4m2 0h1m1 0h1M3 31.5h1m2 0h2m1 0h2m1 0h2m2 0h1m2 0h1m1 0h1m3 0h3m2 0h3m1 0h1m1 0h1m3 0h3M2 32.5h1m4 0h2m2 0h2m2 0h2m3 0h1m3 0h3m3 0h1m10 0h2M3 33.5h1m1 0h3m2 0h2m2 0h1m1 0h4m1 0h1m1 0h2m1 0h3m1 0h4m1 0h2m5 0h1M2 34.5h1m1 0h1m1 0h1m1 0h1m1 0h2m3 0h6m1 0h2m1 0h1m1 0h1m1 0h1m1 0h1m1 0h7m1 0h1M10 35.5h2m1 0h3m1 0h1m1 0h1m2 0h1m3 0h1m1 0h1m1 0h2m1 0h2m3 0h1m1 0h1m1 0h1M2 36.5h7m2 0h1m1 0h2m3 0h1m1 0h1m2 0h1m2 0h1m3 0h5m1 0h1m1 0h2m1 0h2M2 37.5h1m5 0h1m2 0h2m2 0h2m2 0h2m1 0h1m2 0h3m2 0h3m1 0h1m3 0h1m3 0h1M2 38.5h1m1 0h3m1 0h1m1 0h2m4 0h1m3 0h3m3 0h1m1 0h2m1 0h2m1 0h5m2 0h1M2 39.5h1m1 0h3m1 0h1m2 0h3m1 0h1m3 0h2m1 0h2m2 0h1m3 0h2m1 0h1m1 0h1m2 0h1m1 0h3M2 40.5h1m1 0h3m1 0h1m1 0h4m1 0h5m2 0h1m1 0h1m5 0h1m2 0h1m3 0h6M2 41.5h1m5 0h1m3 0h1m4 0h2m1 0h1m1 0h8m1 0h1m1 0h3m1 0h1m1 0h1m1 0h1M2 42.5h7m1 0h2m1 0h1m1 0h3m1 0h1m1 0h3m1 0h1m1 0h1m2 0h2m1 0h3m1 0h3m1 0h2"/></svg>
